<svg id="Capa_1" enable-background="new 0 0 512 512" height="512" viewBox="0 0 512 512" width="512" xmlns="http://www.w3.org/2000/svg"><g><g><g><path d="m160 502.89c-8.284 0-15-6.716-15-15v-31c0-8.284 6.716-15 15-15s15 6.716 15 15v31c0 8.284-6.716 15-15 15z" fill="#222221"/></g><g><path d="m352 502.89c-8.284 0-15-6.716-15-15v-31c0-8.284 6.716-15 15-15s15 6.716 15 15v31c0 8.284-6.716 15-15 15z" fill="#222221"/></g><g><path d="m331.851 470.89h-151.702c-65.284 0-121.144-46.619-132.822-110.851l-14.085-77.466c-.796-4.376.392-8.88 3.242-12.295s7.068-5.389 11.516-5.389h416c4.448 0 8.666 1.974 11.517 5.389 2.85 3.415 4.037 7.919 3.241 12.295l-14.085 77.466c-11.678 64.231-67.537 110.851-132.822 110.851zm-265.878-176 10.87 59.782c9.083 49.958 52.529 86.218 103.306 86.218h151.702c50.777 0 94.224-36.26 103.307-86.217l10.869-59.783z" fill="#222221"/></g><g><path d="m497 294.89h-482c-8.284 0-15-6.716-15-15s6.716-15 15-15h482c8.284 0 15 6.716 15 15s-6.716 15-15 15z" fill="#222221"/></g><g><path d="m464 294.891c-8.284 0-15-6.716-15-15v-202.555c0-10.24-3.992-19.855-11.242-27.075-7.224-7.194-16.8-11.15-26.979-11.15-.054 0-.107 0-.162 0-8.76.036-17.313 3.116-24.085 8.672l-18.566 15.233c-6.405 5.252-15.856 4.322-21.111-2.083s-4.322-15.856 2.082-21.11l18.566-15.233c12.087-9.917 27.354-15.415 42.99-15.479h.289c18.17 0 35.258 7.058 48.146 19.894 12.943 12.89 20.072 30.054 20.072 48.331v202.555c0 8.284-6.716 15-15 15z" fill="#222221"/></g><g><path d="m335.829 145.631c-3.979 0-7.794-1.58-10.606-4.394l-56.569-56.569c-5.857-5.857-5.858-15.355-.001-21.213l22.627-22.628c21.445-21.443 56.338-21.444 77.783 0 21.445 21.445 21.445 56.338 0 77.783l-22.627 22.628c-2.813 2.812-6.628 4.393-10.607 4.393zm-35.356-71.569 35.356 35.356 12.021-12.021c9.748-9.748 9.748-25.608 0-35.356s-25.61-9.748-35.356 0z" fill="#222221"/></g></g></g></svg>