<?xml version="1.0" encoding="iso-8859-1"?>
<!-- Generator: Adobe Illustrator 19.0.0, SVG Export Plug-In . SVG Version: 6.00 Build 0)  -->
<svg version="1.1" id="Capa_1" xmlns="http://www.w3.org/2000/svg" xmlns:xlink="http://www.w3.org/1999/xlink" x="0px" y="0px"
	 viewBox="0 0 480 480" style="enable-background:new 0 0 480 480;" xml:space="preserve">
<g>
	<g>
		<path d="M472,20h-40c-2.4,0-4,0.8-5.6,2.4L412,36.8l-6.4-6.4c-3.2-3.2-8-3.2-11.2,0l-24,24c-3.2,3.2-3.2,8,0,11.2l24,24
			c3.2,3.2,8,3.2,11.2,0l24-24c3.2-3.2,3.2-8,0-11.2l-6.4-6.4l12-12H464v208H8c-4.8,0-8,3.2-8,8v137.6c0,24,16,44.8,39.2,52
			l-4.8,4.8c-3.2,3.2-3.2,8,0,11.2c3.2,3.2,8,3.2,11.2,0L59.2,444h361.6l13.6,13.6c3.2,3.2,8,3.2,11.2,0s3.2-8,0-11.2l-4.8-4.8
			c23.2-6.4,39.2-28,39.2-52V28C480,23.2,476.8,20,472,20z M400,72.8L387.2,60L400,47.2L412.8,60L400,72.8z M464,389.6
			c0,20.8-16.8,38.4-38.4,38.4H54.4C32.8,428,16,411.2,16,389.6V260h448V389.6z"/>
	</g>
</g>
<g>
</g>
<g>
</g>
<g>
</g>
<g>
</g>
<g>
</g>
<g>
</g>
<g>
</g>
<g>
</g>
<g>
</g>
<g>
</g>
<g>
</g>
<g>
</g>
<g>
</g>
<g>
</g>
<g>
</g>
</svg>
