<svg height="512" viewBox="0 0 64 64" width="512" xmlns="http://www.w3.org/2000/svg"><g id="Bed-3" data-name="Bed"><path d="m59 24h-2a3 3 0 0 0 -3 3v2.026a4.948 4.948 0 0 0 -3-1.026h-31v-3a3 3 0 0 0 -3-3h-7v-3a3 3 0 0 0 -3-3h-2a3 3 0 0 0 -3 3v26a3 3 0 0 0 3 3h2a3 3 0 0 0 3-3v-1h44v1a3 3 0 0 0 3 3h2a3 3 0 0 0 3-3v-18a3 3 0 0 0 -3-3zm-5 9v3h-44v-6h41a3 3 0 0 1 3 3zm-37-9a1 1 0 0 1 1 1v3h-8v-4zm-9 21a1 1 0 0 1 -1 1h-2a1 1 0 0 1 -1-1v-26a1 1 0 0 1 1-1h2a1 1 0 0 1 1 1zm2-3v-4h44v4zm50 3a1 1 0 0 1 -1 1h-2a1 1 0 0 1 -1-1v-18a1 1 0 0 1 1-1h2a1 1 0 0 1 1 1z"/></g></svg>