<?xml version="1.0" encoding="utf-8"?>
<!-- Generator: Adobe Illustrator 23.0.2, SVG Export Plug-In . SVG Version: 6.00 Build 0)  -->
<svg version="1.1" xmlns="http://www.w3.org/2000/svg" xmlns:xlink="http://www.w3.org/1999/xlink" x="0px" y="0px"
	 viewBox="0 0 150 150" style="enable-background:new 0 0 150 150;" xml:space="preserve">
<style type="text/css">
	.st0{display:none;}
	.st1{display:inline;}
	.st2{fill:none;stroke:#000000;stroke-width:4;stroke-linecap:round;stroke-miterlimit:10;}
	.st3{fill:none;stroke:#D4BFAA;stroke-width:4;stroke-miterlimit:10;}
</style>
<g id="Layer_1" class="st0">
	<g class="st1">
		<path d="M138.2,60.6h-3.8V28.1c0-4.2-3.4-7.6-7.6-7.6H23.2c-4.2,0-7.6,3.4-7.6,7.6v32.6h-3.8c-5,0-9,4-9,9v59.8
			c0,1,0.8,1.8,1.8,1.8s1.8-0.8,1.8-1.8v-24.3h137.4v24.3c0,1,0.8,1.8,1.8,1.8s1.8-0.8,1.8-1.8V69.6
			C147.2,64.7,143.2,60.6,138.2,60.6z M19.1,28.1c0-2.3,1.8-4.1,4.1-4.1h103.5c2.3,0,4.1,1.8,4.1,4.1v32.6h-17.1v-9.1c0-5-4-9-9-9
			H87c-5,0-9,4-9,9v9.1h-6.1v-9.1c0-5-4-9-9-9H45.2c-5,0-9,4-9,9v9.1H19.1L19.1,28.1z M81.5,60.6v-9.1c0-3,2.5-5.5,5.5-5.5h17.7
			c3,0,5.5,2.5,5.5,5.5v9.1L81.5,60.6z M39.7,60.6v-9.1c0-3,2.5-5.5,5.5-5.5h17.7c3,0,5.5,2.5,5.5,5.5v9.1L39.7,60.6z M11.8,64.1
			h126.4c3,0,5.5,2.5,5.5,5.5v20.9H6.2V69.6C6.2,66.6,8.7,64.1,11.8,64.1L11.8,64.1z M6.2,101.7v-7.6h137.4v7.6H6.2z"/>
	</g>
</g>
<g id="Layer_3">
	
		<image style="display:none;overflow:visible;" width="257" height="131" xlink:href="1F53D2D1.jpg"  transform="matrix(0.6397 0 0 0.6397 -6.76 34.4605)">
	</image>
	<path class="st2" d="M93.2,134.3H55.1c-3.9,0-7-3.2-7-7V67.9c0-14.4,11.7-26.1,26.1-26.1h0c14.4,0,26.1,11.7,26.1,26.1v59.4
		C100.2,131.2,97.1,134.3,93.2,134.3z"/>
	<line class="st2" x1="74.1" y1="18.1" x2="74.1" y2="41.8"/>
	<path class="st2" d="M104.7,40.7l-30.6-8.6v-4v-2.9l30.5-6.4c2-0.4,3.9,1.1,3.9,3.2v15.8C108.6,39.8,106.7,41.3,104.7,40.7z"/>
	<path class="st2" d="M22.9,88.1l9.4-35.6c1.9-7,5.3-13.5,10.1-19l0,0c2-2.3,4.8-3.7,7.9-3.9l23.8-1.5"/>
</g>
<g id="Layer_2" class="st0">
	<path class="st3" d="M118.7,81.1l-41.4,62.7c-1.1,1.6-3.5,1.6-4.5,0L31.3,81.1L30.8,80c-2.6-6.5-5.9-15.7-5.6-23.3
		C26.5,31.6,46.5,11,71.6,9.1c29.5-2.2,54.1,21.1,54.1,50.1C125.7,67.1,121.9,74.5,118.7,81.1L118.7,81.1z"/>
	<g class="st1">
		<path d="M138.2,57.8h-4.6V28.1c0-4.2-3.4-7.6-7.6-7.6H24c-4.2,0-7.6,3.4-7.6,7.6v29.7h-4.6c-5,0-9,4.5-9,10.1v68.8
			c0,1,0.8,1.8,1.8,1.8s1.8-0.8,1.8-1.8v-28.2h137.4v28.2c0,1,0.8,1.8,1.8,1.8s1.8-0.8,1.8-1.8V67.9
			C147.2,62.3,143.1,57.8,138.2,57.8L138.2,57.8z M19.9,28.1c0-2.3,1.8-4.1,4.1-4.1h102c2.3,0,4.1,1.8,4.1,4.1v29.7h-21.7V47
			c0-5.6-4.8-10.1-10.6-10.1H52.1c-5.9,0-10.6,4.5-10.6,10.1v10.7H19.9L19.9,28.1z M45,57.8V47c0-3.6,3.2-6.6,7.1-6.6h45.6
			c3.9,0,7.1,3,7.1,6.6v10.7H45z M11.8,61.3h126.4c3,0,5.5,3,5.5,6.6v24.3H6.2V67.9C6.2,64.3,8.7,61.3,11.8,61.3z M6.2,105v-9.3
			h137.4v9.3H6.2z"/>
	</g>
</g>
</svg>
