<?xml version="1.0" encoding="utf-8"?>
<!-- Generator: Adobe Illustrator 23.0.2, SVG Export Plug-In . SVG Version: 6.00 Build 0)  -->
<svg version="1.1" id="Layer_1" xmlns="http://www.w3.org/2000/svg" xmlns:xlink="http://www.w3.org/1999/xlink" x="0px" y="0px"
	 viewBox="0 0 150 150" style="enable-background:new 0 0 150 150;" xml:space="preserve">
<style type="text/css">
	.st0{display:none;}
	.st1{display:inline;fill:none;stroke:#1A0B0C;stroke-width:4;stroke-linecap:round;stroke-miterlimit:10;}
	.st2{display:inline;}
	.st3{display:inline;fill:none;stroke:#000000;stroke-width:4;stroke-miterlimit:10;}
	.st4{display:inline;fill:none;stroke:#000000;stroke-width:4;stroke-linecap:round;stroke-miterlimit:10;}
	.st5{display:inline;fill:none;stroke:#231F20;stroke-width:4;stroke-miterlimit:10;}
	.st6{display:inline;fill:none;stroke:#231F20;stroke-width:4;stroke-linecap:round;stroke-miterlimit:10;}
	.st7{fill:none;stroke:#D4BFAA;stroke-width:9;stroke-linecap:round;stroke-miterlimit:10;}
</style>
<g id="Layer_3">
</g>
<g id="heater" class="st0">
	<line class="st1" x1="39" y1="141" x2="39" y2="129.5"/>
	<line class="st1" x1="113" y1="141" x2="113" y2="129.5"/>
	<path class="st1" d="M124.3,128.8H28.2c-6.6,0-12-5.4-12-12V66.5c0-6.6,5.4-12,12-12h96.1c6.6,0,12,5.4,12,12v50.3
		C136.3,123.4,130.9,128.8,124.3,128.8z"/>
	<g class="st2">
		<g>
			<path d="M55.1,27.9c-2.3-4.8-4.2-8.5-0.1-14.6c0.9-1.3,1.5-3.1,0.2-4s-3.1-0.5-4,0.8c-5.9,8.9-2.8,15.2-0.3,20.3
				c2.4,4.8,4.1,8.2,0.3,14c-0.9,1.3-0.8,3.4-0.2,4c0,0.5,1,0.5,1.6,0.5c0.9,0,1.8-0.4,2.4-1.3C60.6,39,57.5,32.8,55.1,27.9z"/>
		</g>
	</g>
	<g class="st2">
		<g>
			<path d="M77.1,27.9c-2.3-4.8-4.2-8.5-0.1-14.6c0.9-1.3,1.5-3.1,0.2-4s-3.1-0.5-4,0.8c-5.9,8.9-2.8,15.2-0.3,20.3
				c2.4,4.8,4.1,8.2,0.3,14c-0.9,1.3-0.8,3.4-0.2,4c0,0.5,1,0.5,1.6,0.5c0.9,0,1.8-0.4,2.4-1.3C82.6,39,79.6,32.8,77.1,27.9z"/>
		</g>
	</g>
	<g class="st2">
		<g>
			<path d="M99.1,27.9c-2.3-4.8-4.2-8.5-0.1-14.6c0.9-1.3,1.5-3.1,0.2-4s-3.1-0.5-4,0.8c-5.9,8.9-2.8,15.2-0.3,20.3
				c2.4,4.8,4.1,8.2,0.3,14c-0.9,1.3-0.8,3.4-0.2,4c0,0.5,1,0.5,1.6,0.5c0.9,0,1.8-0.4,2.4-1.3C104.6,39,101.6,32.8,99.1,27.9z"/>
		</g>
	</g>
</g>
<g id="tv" class="st0">
	<path class="st3" d="M138.5,116.3H13c-2.8,0-5.2-2.3-5.2-5.2V27.3c0-2.8,2.3-5.2,5.2-5.2h125.5c2.8,0,5.2,2.3,5.2,5.2v83.9
		C143.6,114,141.3,116.3,138.5,116.3z"/>
	<line class="st4" x1="67.8" y1="118.3" x2="67.8" y2="127.5"/>
	<line class="st4" x1="84.7" y1="118.3" x2="84.7" y2="127.5"/>
	<line class="st4" x1="121.1" y1="134.3" x2="84.7" y2="127.5"/>
	<line class="st4" x1="67.8" y1="127.5" x2="30.9" y2="134.3"/>
	<line class="st4" x1="67.8" y1="127.5" x2="84.7" y2="127.5"/>
</g>
<g id="wifi" class="st0">
	<path class="st4" d="M7.9,54.4c15.8-20.5,39.9-33.5,67-33.5c26.3,0,49.8,12.4,65.6,31.8"/>
	<path class="st4" d="M31.2,72.1c10.3-13.3,26-21.9,43.6-21.9c17.1,0,32.5,8,42.8,20.7"/>
	<path class="st4" d="M52.8,90.2C58.1,83.3,66.2,79,75.2,79c8.8,0,16.7,4.1,22,10.7"/>
	<circle class="st4" cx="74.7" cy="114.9" r="10.1"/>
</g>
<g id="parking_pay" class="st0">
	<path class="st5" d="M119.3,86.9L18.7,28.8c-2.6-1.5-3.6-4.9-2-7.6l1.4-2.4c1.5-2.6,4.9-3.6,7.6-2l100.6,58.1
		c2.6,1.5,3.6,4.9,2,7.6l-1.4,2.4C125.4,87.5,122,88.4,119.3,86.9z"/>
	<path class="st6" d="M143.6,79.3v48.6c0,2.4-2,4.4-4.4,4.4H105c-2.4,0-4.4-2-4.4-4.4V88.3"/>
	<path class="st6" d="M143.6,77.8c-2.3-13-14.7-22.1-30.7-17.1"/>
	<path class="st5" d="M31.9,133.9h-23c-1.3,0-2.3-1-2.3-2.3v-40c0-7.6,6.2-13.8,13.8-13.8l0,0c7.6,0,13.8,6.2,13.8,13.8v40
		C34.2,132.9,33.1,133.9,31.9,133.9z"/>
	<circle class="st5" cx="122.6" cy="107.7" r="6.5"/>
</g>
<g id="aire_acondicionado" class="st0">
	<path class="st3" d="M130.7,86.5H19c-6.6,0-12-5.4-12-12V41.9c0-6.6,5.4-12,12-12h111.7c6.6,0,12,5.4,12,12v32.5
		C142.7,81.1,137.3,86.5,130.7,86.5z"/>
	<path class="st3" d="M121.7,71.3h-94c-2.5,0-4.5,2-4.5,4.5V82c0,2.5,2,4.5,4.5,4.5h94c2.5,0,4.5-2,4.5-4.5v-6.1
		C126.2,73.4,124.2,71.3,121.7,71.3z"/>
	<line class="st4" x1="106.4" y1="42" x2="126.2" y2="42"/>
	<path class="st2" d="M33.7,111.7c0,1.3,1,2.3,2.3,2.3s2.3-1,2.3-2.3c0-0.5,0.1-0.7,0.4-1.1c1.4-2.2,1.4-4.9,0-7.1
		c-0.5-0.7-0.5-1.6,0-2.3c0.7-1.1,1.1-2.3,1-3.5c0-1.3-1-2.3-2.3-2.3s-2.3,1-2.3,2.3c0,0.5-0.1,0.7-0.4,1.1c-1.4,2.2-1.4,4.9,0,7.1
		c0.5,0.7,0.5,1.6,0,2.3C34,109.2,33.7,110.4,33.7,111.7z"/>
	<path class="st2" d="M71.1,111.7c0,1.3,1,2.3,2.3,2.3s2.3-1,2.3-2.3c0-0.5,0.1-0.7,0.4-1.1c1.4-2.2,1.4-4.9,0-7.1
		c-0.5-0.7-0.5-1.6,0-2.3c0.7-1.1,1.1-2.3,1-3.5c0-1.3-1-2.3-2.3-2.3s-2.3,1-2.3,2.3c0,0.5-0.1,0.7-0.4,1.1c-1.4,2.2-1.4,4.9,0,7.1
		c0.5,0.7,0.5,1.6,0,2.3C71.5,109.2,71.1,110.4,71.1,111.7z"/>
	<path class="st2" d="M52.4,111.7c0,1.3,1,2.3,2.3,2.3s2.3-1,2.3-2.3c0-0.5,0.1-0.7,0.4-1.1c1.4-2.2,1.4-4.9,0-7.1
		c-0.5-0.7-0.5-1.6,0-2.3c0.7-1.1,1.1-2.3,1-3.5c0-1.3-1-2.3-2.3-2.3s-2.3,1-2.3,2.3c0,0.5-0.1,0.7-0.4,1.1c-1.4,2.2-1.4,4.9,0,7.1
		c0.5,0.7,0.5,1.6,0,2.3C52.7,109.2,52.4,110.4,52.4,111.7z"/>
	<path class="st2" d="M89.8,111.7c0,1.3,1,2.3,2.3,2.3s2.3-1,2.3-2.3c0-0.5,0.1-0.7,0.4-1.1c1.4-2.2,1.4-4.9,0-7.1
		c-0.5-0.7-0.5-1.6,0-2.3c0.7-1.1,1.1-2.3,1-3.5c0-1.3-1-2.3-2.3-2.3s-2.3,1-2.3,2.3c0,0.5-0.1,0.7-0.4,1.1c-1.4,2.2-1.4,4.9,0,7.1
		c0.5,0.7,0.5,1.6,0,2.3C90.2,109.2,89.8,110.4,89.8,111.7z"/>
	<path class="st2" d="M108.6,111.7c0,1.3,1,2.3,2.3,2.3s2.3-1,2.3-2.3c0-0.5,0.1-0.7,0.4-1.1c1.4-2.2,1.4-4.9,0-7.1
		c-0.5-0.7-0.5-1.6,0-2.3c0.7-1.1,1.1-2.3,1-3.5c0-1.3-1-2.3-2.3-2.3s-2.3,1-2.3,2.3c0,0.5-0.1,0.7-0.4,1.1c-1.4,2.2-1.4,4.9,0,7.1
		c0.5,0.7,0.5,1.6,0,2.3C108.9,109.2,108.5,110.4,108.6,111.7z"/>
</g>
<g id="swimming" class="st0">
	<g class="st2">
		<g>
			<g>
				<path d="M141.3,105.6l-5.9,3.5c-2.5,1.5-5.6,1.4-8.1,0l-5.5-3.3c-5.4-3.3-12.2-3.3-17.7-0.1l-5.9,3.5c-2.5,1.5-5.6,1.4-8.1,0
					l-5.5-3.3c-5.4-3.3-12.2-3.3-17.7-0.1l-5.9,3.5c-2.5,1.5-5.6,1.4-8.1,0l-5.5-3.3c-5.4-3.3-12.2-3.3-17.7-0.1l-5.9,3.5
					c-2.5,1.5-5.6,1.4-8.1,0l-5.5-3.3l-4.8,4.4l5.5,3.3c5.4,3.3,12.2,3.3,17.6,0.1l5.9-3.5c2.5-1.5,5.6-1.5,8.1,0l5.5,3.3
					c5.4,3.3,12.2,3.3,17.6,0.1l5.9-3.5c2.5-1.5,5.6-1.5,8.1,0l5.5,3.3c2.7,1.6,5.8,2.5,8.9,2.5c3,0,6-0.8,8.7-2.4l5.9-3.5
					c2.5-1.5,5.6-1.5,8.1,0l5.5,3.3c5.4,3.3,12.2,3.3,17.6,0.1l5.9-3.5L141.3,105.6z"/>
			</g>
		</g>
		<g>
			<g>
				<path d="M140.5,89.8l-5.9,3.5c-2.5,1.5-5.6,1.4-8.1,0L121,90c-5.4-3.3-12.2-3.3-17.7-0.1l-5.9,3.5c-2.5,1.5-5.6,1.4-8.1,0
					l-5.5-3.3c-5.4-3.3-12.2-3.3-17.7-0.1l-5.9,3.5c-2.5,1.5-5.6,1.4-8.1,0l-5.5-3.3c-5.4-3.3-12.2-3.3-17.7-0.1L23,93.3
					c-2.5,1.5-5.6,1.4-8.1,0L9.4,90l-4.8,4.4l5.5,3.3c5.4,3.3,12.2,3.3,17.6,0.1l5.9-3.5c2.5-1.5,5.6-1.5,8.1,0l5.5,3.3
					c5.4,3.3,12.2,3.3,17.6,0.1l5.9-3.5c2.5-1.5,5.6-1.5,8.1,0l5.5,3.3c2.7,1.6,5.8,2.5,8.9,2.5c3,0,6-0.8,8.7-2.4l5.9-3.5
					c2.5-1.5,5.6-1.5,8.1,0l5.5,3.3c5.4,3.3,12.2,3.3,17.6,0.1l5.9-3.5L140.5,89.8z"/>
			</g>
		</g>
		<g>
			<g>
				<path d="M141.3,120l-5.9,3.5c-2.5,1.5-5.6,1.4-8.1,0l-5.5-3.3c-5.4-3.3-12.2-3.3-17.7-0.1l-5.9,3.5c-2.5,1.5-5.6,1.4-8.1,0
					l-5.5-3.3c-5.4-3.3-12.2-3.3-17.7-0.1l-5.9,3.5c-2.5,1.5-5.6,1.4-8.1,0l-5.5-3.3c-5.4-3.3-12.2-3.3-17.7-0.1l-5.9,3.5
					c-2.5,1.5-5.6,1.4-8.1,0l-5.5-3.3l-4.8,4.4l5.5,3.3c5.4,3.3,12.2,3.3,17.6,0.1l5.9-3.5c2.5-1.5,5.6-1.4,8.1,0l5.5,3.3
					c5.4,3.3,12.2,3.3,17.6,0.1l5.9-3.5c2.5-1.5,5.6-1.5,8.1,0l5.5,3.3c2.7,1.6,5.8,2.5,8.9,2.5c3,0,6-0.8,8.7-2.4l5.9-3.5
					c2.5-1.5,5.6-1.4,8.1,0l5.5,3.3c5.4,3.3,12.2,3.3,17.6,0.1l5.9-3.5L141.3,120z"/>
			</g>
		</g>
	</g>
	<line class="st3" x1="28.9" y1="91" x2="28.9" y2="33.6"/>
	<line class="st3" x1="74.9" y1="91" x2="74.9" y2="32.9"/>
	<path class="st4" d="M56.2,36.9V22.7c0-7.2-5.8-13-13-13H42c-7.2,0-13,5.8-13,13v14.2"/>
	<path class="st4" d="M102.1,36.9V22.7c0-7.2-5.8-13-13-13H88c-7.2,0-13,5.8-13,13v14.2"/>
	<line class="st4" x1="28.9" y1="61.9" x2="73.5" y2="61.9"/>
</g>
<g id="Layer_6" class="st0">
	<path class="st3" d="M131.2,142.4H21.3c-3.4,0-6.2-2.8-6.2-6.2V12c0-3.4,2.8-6.2,6.2-6.2h109.8c3.4,0,6.2,2.8,6.2,6.2v124.2
		C137.4,139.6,134.6,142.4,131.2,142.4z"/>
	<line class="st3" x1="15.1" y1="34.8" x2="137.4" y2="34.8"/>
	<line class="st4" x1="95.1" y1="20.5" x2="105.4" y2="20.5"/>
	<line class="st4" x1="116.2" y1="20.5" x2="127.5" y2="20.5"/>
	<circle class="st4" cx="76" cy="87.8" r="37.5"/>
	<path class="st4" d="M81.6,86.8"/>
	<path class="st4" d="M38.8,83.2"/>
	<path class="st4" d="M105,85.1c0-11.2-15.3-26.5-26.5-26.5"/>
	<path class="st4" d="M95,83.1c0-5.6-7.6-13.2-13.2-13.2"/>
	<path class="st4" d="M53.4,104.3c0,3.7,5,8.7,8.7,8.7"/>
</g>
<g id="Cocina" class="st0">
	<g class="st2">
		<g>
			<g>
				<path d="M51.3,11.7C46.9,5.6,41,2.2,34.6,2.2s-12.3,3.4-16.7,9.5c-4.2,5.9-6.6,13.7-6.6,21.9c0,13.9,6.6,25.9,16.3,30V141
					c0,3.8,3.1,7,7,7c3.8,0,7-3.1,7-7V63.6c9.7-4,16.3-16.1,16.3-30C57.9,25.4,55.6,17.6,51.3,11.7z M38.6,59.8
					C37.6,60.1,37,61,37,62v79c0,1.3-1,2.3-2.3,2.3s-2.3-1-2.3-2.3V62c0-1-0.7-1.9-1.6-2.2C22.2,57.1,16,46.1,16,33.6
					c0-14.8,8.3-26.8,18.6-26.8s18.6,12,18.6,26.8C53.2,46.1,47.1,57.1,38.6,59.8z"/>
			</g>
		</g>
		<g>
			<g>
				<path d="M130,2.2c-13.3,0-24,10.8-24,24V79c0,1.3,1,2.3,2.3,2.3h3.9v56.6c0,5.6,4.5,10.1,10.1,10.1s10.1-4.5,10.1-10.1V4.5
					C132.3,3.3,131.3,2.2,130,2.2z M127.7,137.9c0,3-2.4,5.4-5.4,5.4s-5.4-2.4-5.4-5.4V81h10.9L127.7,137.9L127.7,137.9z
					 M127.7,76.7h-17.1V26.3c0-9.9,7.5-18.1,17.1-19.2V76.7L127.7,76.7z"/>
			</g>
		</g>
		<g>
			<g>
				<path d="M95.9,2.2c-1.3,0-2.3,1-2.3,2.3v25.6h-4.7V4.5c0-1.3-1-2.3-2.3-2.3s-2.3,1-2.3,2.3v25.6h-4.7V4.5c0-1.3-1-2.3-2.3-2.3
					S75,3.2,75,4.5v25.6h-4.7V4.5c0-1.3-1-2.3-2.3-2.3s-2.3,1-2.3,2.3v44.2c0,6.3,3.7,12,9.3,14.7V141c0,3.8,3.1,7,7,7
					c3.8,0,7-3.1,7-7V63.5c5.6-2.7,9.3-8.4,9.3-14.7V4.5C98.2,3.3,97.2,2.2,95.9,2.2z M93.6,48.8c0,4.9-3.1,9.3-7.8,11
					c-0.9,0.3-1.6,1.2-1.6,2.2v79c0,1.3-1,2.3-2.3,2.3s-2.3-1-2.3-2.3V61.9c0-1-0.6-1.9-1.6-2.2c-4.6-1.6-7.8-6-7.8-11v-14H75v0.8
					c0,1.3,1,2.3,2.3,2.3s2.3-1,2.3-2.3v-0.8h4.7v0.8c0,1.3,1,2.3,2.3,2.3s2.3-1,2.3-2.3v-0.8h4.7L93.6,48.8L93.6,48.8z"/>
			</g>
		</g>
	</g>
</g>
<g id="gym" class="st0">
	<path class="st3" d="M34.8,114.9L34.8,114.9c-6,0-8.9-4.9-8.9-10.9V42.7c0-6,2.9-10.9,8.9-10.9l0,0c6,0,8.9,4.9,8.9,10.9V104
		C43.7,110,40.8,114.9,34.8,114.9z"/>
	<path class="st3" d="M115.8,116.9L115.8,116.9c-6,0-8.9-4.9-8.9-10.9V44.7c0-6,2.9-10.9,8.9-10.9l0,0c6,0,8.9,4.9,8.9,10.9V106
		C124.7,112,121.8,116.9,115.8,116.9z"/>
	<path class="st3" d="M133.8,108.1L133.8,108.1c-4.9,0-8.9-4-8.9-8.9V52.7c0-4.9,4-8.9,8.9-8.9l0,0c4.9,0,8.9,4,8.9,8.9v46.4
		C142.7,104.1,138.7,108.1,133.8,108.1z"/>
	<path class="st3" d="M16.4,105.5L16.4,105.5c-4.9,0-8.9-4-8.9-8.9V50.2c0-4.9,4-8.9,8.9-8.9l0,0c4.9,0,8.9,4,8.9,8.9v46.4
		C25.3,101.5,21.4,105.5,16.4,105.5z"/>
	<line class="st3" x1="42.2" y1="65.2" x2="108" y2="65.2"/>
	<line class="st3" x1="42.1" y1="85.2" x2="107.9" y2="85.2"/>
</g>
<g id="parking_free" class="st0">
	<circle class="st3" cx="75.7" cy="74" r="67.3"/>
	<line class="st3" x1="64.2" y1="109.9" x2="64.2" y2="51.7"/>
	<path class="st4" d="M84.5,49.1H66.8c-1.4,0-2.6,1.2-2.6,2.6v27.1h20.3c7.7,0,14-6.3,14-14v-1.7C98.5,55.4,92.2,49.1,84.5,49.1z"/>
</g>
<g id="WORKSPACE" class="st0">
	<line class="st6" x1="77.3" y1="10.9" x2="77.3" y2="54.4"/>
	<line class="st6" x1="77.3" y1="10.9" x2="141.7" y2="10.9"/>
	<line class="st6" x1="77.8" y1="54.4" x2="142.2" y2="54.4"/>
	<line class="st6" x1="142.2" y1="11.3" x2="142.2" y2="52.3"/>
	<line class="st6" x1="110" y1="54.4" x2="110" y2="70.3"/>
	<line class="st6" x1="9.9" y1="70.3" x2="141.7" y2="70.3"/>
	<line class="st6" x1="141.7" y1="143.3" x2="141.7" y2="70.3"/>
	<line class="st6" x1="138.8" y1="86.8" x2="12.4" y2="86.8"/>
	<line class="st6" x1="9.9" y1="70.3" x2="9.9" y2="143.3"/>
	<line class="st6" x1="58.2" y1="143.3" x2="58.2" y2="86.8"/>
	<line class="st6" x1="58.2" y1="110.2" x2="9.9" y2="110.2"/>
	<line class="st6" x1="9.9" y1="133.6" x2="56.7" y2="133.6"/>
</g>
<g>
	<circle class="st7" cx="75.4" cy="46.3" r="33.4"/>
	<path class="st7" d="M22.2,139c4.4-25.5,26.6-44.9,53.3-44.9c25.8,0,47.5,18.1,52.9,42.4"/>
</g>
</svg>
