<?xml version="1.0" encoding="utf-8"?>
<!-- Generator: Adobe Illustrator 23.0.2, SVG Export Plug-In . SVG Version: 6.00 Build 0)  -->
<svg version="1.1" id="Layer_1" xmlns="http://www.w3.org/2000/svg" xmlns:xlink="http://www.w3.org/1999/xlink" x="0px" y="0px"
	 viewBox="0 0 512 512" style="enable-background:new 0 0 512 512;" xml:space="preserve">
<style type="text/css">
	.st0{fill:#D4BFAA;}
</style>
<g>
	<g>
		<path class="st0" d="M468.2,87.4c-55.2-52.5-144.9-52.5-200.1,0l-11.5,10.9l-11.5-10.9c-55.2-52.5-145-52.5-200.1,0
			c-27.1,25.8-42,60-42,96.2c0,36.3,14.9,70.5,42,96.3l199.3,189.3c3.4,3.3,7.8,4.9,12.3,4.9c4.4,0,8.8-1.6,12.3-4.9l199.3-189.2
			c27.1-25.8,42-60,42-96.3C510.2,147.3,495.3,113.1,468.2,87.4z M443.7,254.1L256.6,431.7L69.6,254.1c-20-19-31-44-31-70.5
			s11-51.5,31-70.5c20.8-19.8,48.2-29.7,75.5-29.7c27.4,0,54.7,9.9,75.5,29.7l23.7,22.5c6.9,6.5,17.6,6.5,24.5,0l23.7-22.5
			c41.7-39.6,109.4-39.6,151.1,0c20,19,31,44,31,70.5S463.6,235.1,443.7,254.1z"/>
	</g>
</g>
<path class="st0" d="M254.6,441.6L56.6,243.6c-33.3-33.3-33.3-87.3,0-120.5l33.8-33.8c33.3-33.3,87.3-33.3,120.5,0l150.9,150.9
	c33.3,33.3,33.3,87.3,0,120.5l-80.9,80.9C273.7,448.9,261.9,448.9,254.6,441.6z"/>
<path class="st0" d="M114.3,286.6L312.4,88.6c33.3-33.3,87.3-33.3,120.5,0l33.8,33.8c33.3,33.3,33.3,87.3,0,120.5L315.8,393.9
	c-33.3,33.3-87.3,33.3-120.5,0L114.3,313C107,305.7,107,293.9,114.3,286.6z"/>
</svg>
