<svg id="Layer_1" height="512" viewBox="0 0 512 512" width="512" xmlns="http://www.w3.org/2000/svg" data-name="Layer 1"><path d="m472.032 202.606v-55.118a26.023 26.023 0 0 0 -26-25.988h-381.965a26.023 26.023 0 0 0 -26 25.988v55.545a37.245 37.245 0 0 0 -28.313 35.889v133.61a8.636 8.636 0 0 0 8.653 8.6h58.114a8.635 8.635 0 0 0 8.652-8.6v-38.612l341.654.1v38.509a8.635 8.635 0 0 0 8.652 8.6h58.114a8.636 8.636 0 0 0 8.653-8.6v-133.607c0-17.91-13-32.891-30.214-36.316zm-407.965-69.106h381.965a14.01 14.01 0 0 1 14 13.988v54.654c-18.676 2.195-33.2 17.847-33.2 36.78v4.855h-341.659v-4.855c0-19.571-15.524-35.636-35.106-36.956v-54.478a14.01 14.01 0 0 1 14-13.988zm-42.313 235.63v-130.208c0-13.815 11.534-25.054 25.71-25.054s25.709 11.239 25.709 25.054v9.68a6.014 6.014 0 0 0 0 2.351v118.177zm63.419-47.21v-66.143h341.654v66.246zm405.073 47.21h-51.419v-130.208c0-13.815 11.533-25.054 25.709-25.054s25.71 11.239 25.71 25.054z"/></svg>